<svg xmlns="http://www.w3.org/2000/svg" fill="aliceblue" xml:space="preserve" viewBox="0 0 256 256">
  <g stroke-miterlimit="10" stroke-width="0">
    <path d="M28.62201 108.0191H4.7648c-1.54604 0-2.8008-1.25477-2.8008-2.8008s1.25476-2.8008 2.8008-2.8008h23.85721c1.54605 0 2.8008 1.25475 2.8008 2.8008s-1.25475 2.8008-2.8008 2.8008zM164.0519 218.15215c-1.68888 0-3.37777-.64138-4.66333-1.92695l-26.85127-26.85127c-2.57114-2.57674-2.57114-6.76113 0-9.33227l26.45915-26.45915h-75.3023c-1.54605 0-2.8008-1.25196-2.8008-2.8008s1.25475-2.8008 2.8008-2.8008h82.06624c1.13152 0 2.15661.6806 2.58793 1.7281.43413 1.04749.19326 2.25183-.60777 3.05286L136.49763 184.002c-.38931.3893-.38931 1.02229.0028 1.4144l26.84567 26.84567c.3893.39211 1.02229.3893 1.4116 0l83.40782-83.41063c.23527-.23526.27728-.53495.26888-.74501.0084-.42012-.03361-.7198-.26888-.95507L164.7577 43.74073c-.50695-.50414-.89906-.51534-1.4116 0L136.49763 70.5864c-.38931.38931-.38931 1.0223 0 1.4116l31.24012 31.23733c.80103.80103 1.0419 2.00537.60777 3.05287-.43132 1.0475-1.45641 1.7281-2.58794 1.7281H53.33348c-1.54605 0-2.8008-1.25477-2.8008-2.8008s1.25475-2.8008 2.8008-2.8008h105.66577L132.5401 75.95552c-2.57114-2.57393-2.57114-6.76113 0-9.33226l26.84847-26.84847c2.4983-2.49551 6.84515-2.49271 9.33226 0l83.40783 83.40782c1.29957 1.29677 1.97456 3.04447 1.90454 4.9154.07002 1.66088-.60497 3.40578-1.90454 4.70535L168.72083 216.214c-1.28837 1.29397-2.97725 1.93815-4.66893 1.93815zM60.39429 153.5825H37.16165c-1.54604 0-2.8008-1.25195-2.8008-2.8008s1.25476-2.8008 2.8008-2.8008H60.3943c1.54604 0 2.8008 1.25196 2.8008 2.8008s-1.25476 2.8008-2.8008 2.8008z"/>
    <path d="M118.28963 130.8008H22.42945c-1.54605 0-2.8008-1.25476-2.8008-2.8008s1.25475-2.8008 2.8008-2.8008h95.86018c1.54604 0 2.8008 1.25476 2.8008 2.8008s-1.25476 2.8008-2.8008 2.8008z"/>
  </g>
</svg>