<svg xmlns="http://www.w3.org/2000/svg" fill="none" viewBox="0 0 327 328">
  <path fill="#D4B44A" d="M.20698 275V48c0-34 26.33332-46.16667 39.50002-48h249.5c24.4 0 34.833 24.6667 37 37v237.5c0 36.4-24.333 49.167-36.5 51h-76.5V210h38c6.8 0 9.167-6.333 9.5-9.5 1.167-9.5 3.5-29.9 3.5-35.5 0-5.6-5-7.333-7.5-7.5h-43.5v-38c0-13.2 11.667-17.167 17.5-17.5h25c6.8 0 7.833-6 7.5-9V66c0-6.8-5.667-8.5-8.5-8.5h-41.5c-38 0-49.833 34-51 51v49h-30.5c-5.2 0-6.833 4.333-7 6.5v36.5c0 6.4 4.667 9.667 7 10.5h28.5v117h-110C6.20698 324.8-1.45969 291.333.20698 275Z"/>
</svg>