<svg xmlns="http://www.w3.org/2000/svg" fill="none" viewBox="0 0 116 107">
  <path fill="#101820" stroke="#D4B44A" stroke-width="6" d="M18 64.9395V102c0 1.105.8954 2 2 2h25.5c1.1046 0 2-.895 2-2V87c0-1.1046.8954-2 2-2h19c1.1046 0 2 .8954 2 2v15c0 1.105.8954 2 2 2H95c1.1046 0 2-.895 2-2V64.1258c0-1.4596 1.5129-2.4276 2.8381-1.8159l2.1329.9846c.884.4077 1.932.1205 2.485-.6805l8.028-11.6414c.579-.8385.434-1.9777-.335-2.6455L95.1886 33.598a1.99985 1.99985 0 0 1-.6886-1.51V5.5c0-1.10457-.8954-2-2-2H77c-1.1046 0-2 .89543-2 2v10.6136c0 1.6268-1.8387 2.573-3.1625 1.6275L58.7077 8.36266c-.7172-.51229-1.6852-.4947-2.3833.0433L4.39564 48.4245c-.79772.6147-1.01388 1.7267-.50457 2.5956l7.02943 11.9913c.359.6124 1.0156.9886 1.7254.9886h1.1838c.4326 0 .8508-.1547 1.1792-.4362C16.1842 62.5564 18 63.3915 18 64.9395Z"/>
</svg>