<svg width="101" height="99" viewBox="0 0 101 99" fill="none" xmlns="http://www.w3.org/2000/svg">
<path fill-rule="evenodd" clip-rule="evenodd" d="M0.500006 11.5V78C0.166672 84.8333 3.8 98.5 21 98.5H81.5C87.8333 97.3333 100.5 91.9 100.5 79.5V18C100 12 95.7 0 82.5 0H18C12.1667 0 0.500006 2.3 0.500006 11.5ZM31.5938 40.0312V73H38.2813V40.0312H31.5938ZM31.125 29.5625V37.1562H38.7188V29.5625H31.125ZM69.7188 73V48.2812C69.7188 45.3438 68.8438 43.1458 67.0938 41.6875C65.3438 40.2083 63.1146 39.4688 60.4063 39.4688C58.6354 39.4688 57.0833 39.8438 55.75 40.5938C54.4375 41.3438 53.1771 42.3229 51.9688 43.5312V40.0312H45.2813V73H51.9688V48.4375C52.5729 47.7083 53.4896 46.9792 54.7188 46.25C55.9479 45.5 57.1875 45.125 58.4375 45.125C59.6875 45.125 60.7604 45.5729 61.6563 46.4688C62.5729 47.3438 63.0313 48.5312 63.0313 50.0312V73H69.7188Z" fill="#D4B44A"/>
</svg>
