<svg xmlns="http://www.w3.org/2000/svg" fill="none" viewBox="0 0 109 107">
  <path stroke="#D4B44A" stroke-width="8" d="M4.50001 82V15.5C4.50001 6.3 16.1667 4 22 4h64.5c13.2 0 17.5 12 18 18v61.5c0 12.4-12.6667 17.833-19 19H25C7.8 102.5 4.16667 88.8333 4.50001 82Z"/>
  <path fill="#D4B44A" d="M35.5938 77V44.0312h6.6874V77h-6.6874Zm-.4688-35.8438v-7.5937h7.5938v7.5937H35.125Zm38.5938 11.125V77h-6.6876V54.0312c0-1.5-.4583-2.6874-1.375-3.5624-.8958-.8959-1.9687-1.3438-3.2187-1.3438-1.25 0-2.4896.375-3.7187 1.125-1.2292.7292-2.1459 1.4583-2.75 2.1875V77h-6.6876V44.0312h6.6876v3.5c1.2083-1.2083 2.4687-2.1874 3.7812-2.9374 1.3333-.75 2.8854-1.125 4.6562-1.125 2.7084 0 4.9376.7395 6.6876 2.2187 1.75 1.4583 2.625 3.6563 2.625 6.5937Z"/>
</svg>