<svg width="167" height="167" viewBox="0 0 167 167" fill="none" xmlns="http://www.w3.org/2000/svg">
<path fill-rule="evenodd" clip-rule="evenodd" d="M47 161.01C19 161.01 8 133.677 6 120.01V47.0102C6 13.4102 33.3333 5.67685 47 6.01018H120.5C151.3 6.01018 160.667 33.3435 161.5 47.0102V120.01C161.5 150.81 134.167 160.177 120.5 161.01H47ZM127 84.0101C127 108.035 107.524 127.51 83.5 127.51C59.4756 127.51 40 108.035 40 84.0101C40 59.9857 59.4756 40.5101 83.5 40.5101C107.524 40.5101 127 59.9857 127 84.0101ZM134.5 48C141.956 48 148 41.9558 148 34.5C148 27.0442 141.956 21 134.5 21C127.044 21 121 27.0442 121 34.5C121 41.9558 127.044 48 134.5 48Z" fill="#D4B44A"/>
<path d="M6 47.0102V120.01C8 133.677 19 161.01 47 161.01H120.5C134.167 160.177 161.5 150.81 161.5 120.01V47.0102C160.667 33.3435 151.3 6.01018 120.5 6.01018H47C33.3333 5.67685 6 13.4102 6 47.0102ZM6 47.0102V36.0102M83.5 127.51C107.524 127.51 127 108.035 127 84.0101C127 59.9857 107.524 40.5101 83.5 40.5101C59.4756 40.5101 40 59.9857 40 84.0101C40 108.035 59.4756 127.51 83.5 127.51ZM148 34.5C148 41.9558 141.956 48 134.5 48C127.044 48 121 41.9558 121 34.5C121 27.0442 127.044 21 134.5 21C141.956 21 148 27.0442 148 34.5Z" stroke="#D4B44A" stroke-width="11"/>
</svg>
