<svg xmlns="http://www.w3.org/2000/svg" fill="#D4B44A" xml:space="preserve" viewBox="0 0 256 256">
  <g fill="#D4B44A" stroke-miterlimit="10" stroke-width="0" transform="translate(1.964 1.964) scale(2.8008)">
    <circle  cx="45" cy="45" r="45" fill="#D4B44A"/>
    <path fill="#101820FF" d="M57.332 70.088c-1.955.001-4.074-.313-6.32-.946-6.303-1.777-12.904-5.885-18.586-11.568-5.682-5.682-9.79-12.283-11.568-18.586-1.84-6.528-.978-11.999 2.429-15.406.124-.124.25-.244.38-.36.033-.046.07-.09.112-.131l1.819-1.819c.877-.877 2.042-1.36 3.282-1.36 1.24 0 2.405.483 3.282 1.36l6.976 6.977c1.809 1.809 1.809 4.754 0 6.563L36.149 37.8c-.753.753-.753 1.979 0 2.732L49.468 53.85c.729.729 2.002.729 2.732 0l2.988-2.988c1.809-1.808 4.755-1.81 6.564-.001l6.977 6.977c.876.876 1.359 2.042 1.359 3.281s-.483 2.405-1.359 3.281l-1.819 1.819c-.042.042-.087.08-.133.114-.117.13-.236.256-.36.379-2.235 2.236-5.359 3.376-9.085 3.376z"/>
  </g>
</svg>