<svg xmlns="http://www.w3.org/2000/svg" fill="none" viewBox="0 0 1630 155">
  <path fill="#D4B44A" fill-opacity=".5" d="M114.522 41.1369c-4.649 0-7.889-2.2072-9.72-6.6214-6.7627 0-14.1824 1.6436-22.2596 4.9308-5.0247 2.0662-8.4059 3.9681-10.1434 5.7057-1.7375 1.7375-2.6767 3.0994-2.8176 4.0855-.0939.9862.3991 1.8315 1.4792 2.5359 1.0801.6574 2.5828 1.2914 4.5082 1.9019 1.9724.6105 4.2499 1.2209 6.8327 1.8314 13.5246 3.1464 22.0945 5.33 25.7105 6.551 7.185 2.395 12.562 5.0247 16.131 7.8893 3.381 2.8646 5.072 6.7623 5.072 11.6931 0 4.0856-1.268 7.5372-3.804 10.3548-2.489 2.8176-5.799 5.33-9.932 7.5371-4.132 2.207-8.758 4.18-13.877 5.917-5.0715 1.691-10.4484 3.146-16.1306 4.367-5.6353 1.221-11.2001 2.231-16.6944 3.029-10.7539 1.503-19.9347 2.254-27.5423 2.254-13.8533 0-24.5367-1.667-32.05039-5.001-2.81762-1.268-5.11867-4.438-6.90317-9.509C.97234 96.4092.26793 92.9811.26793 90.3043c0-2.7237.2348-4.2264.7044-4.5082.46961-.2817 1.43229-.2817 2.88806 0 1.45577.2348 3.35767.6575 5.70568 1.268l8.45283 2.2541c13.102 3.2872 26.9553 4.9308 41.5599 4.9308 10.7539 0 19.8642-.9627 27.3309-2.8881 4.4143-1.174 6.7623-2.4889 7.0441-3.9446.1878-1.268-3.2872-2.8411-10.4252-4.7195-3.2403-.8923-6.9971-1.8315-11.2705-2.8177-20.7095-5.0247-33.2009-8.265-37.4743-9.7208-4.2734-1.4557-7.0676-2.7471-8.3824-3.8742-1.268-1.127-2.3246-2.3715-3.1699-3.7333-1.5497-2.6768-2.3245-5.2126-2.3245-7.6076 0-2.4419.1174-4.3204.3522-5.6352.2818-1.3149.6574-2.5359 1.127-3.6629.9862-2.3011 2.2307-3.8743 3.7334-4.7196 12.0688-6.7622 29.7963-12.7027 53.1826-17.8214 20.8038-4.6021 37.9208-6.9032 51.3508-6.9032 2.724 0 4.767.4696 6.129 1.4088 2.348 1.7376 3.381 3.5925 3.099 5.5648-.282 1.9724-.892 3.8038-1.831 5.4944-.893 1.6436-2.02 3.1463-3.382 4.5082-1.361 1.3149-2.888 2.4889-4.578 3.522-1.644.9862-3.358 1.808-5.142 2.4654-3.569 1.3149-7.044 1.9724-10.426 1.9724Zm150.813 17.9623c1.503 0 2.255 1.2679 2.255 3.8038 0 4.3673-3.053 10.026-9.158 16.9761l-4.015 4.0856c-12.163 12.1627-23.621 20.2633-34.375 24.3023-6.668 2.489-11.458 2.371-14.37-.353-2.395-2.301-4.296-6.01-5.705-11.1291l-1.691-6.1284-15.004 9.2277-8.664 4.9308c-10.331 5.635-18.08 8.453-23.245 8.453-6.622 0-12.139-2.559-16.554-7.678-4.226-4.837-6.339-10.4488-6.339-16.8354 0-6.2926 2.512-11.9044 7.537-16.8352 7.185-7.0441 18.526-13.5011 34.023-19.3712 14.651-5.4943 26.485-8.2415 35.502-8.2415 3.052 0 4.578 1.5027 4.578 4.5082 0 2.0662-.399 3.6159-1.197 4.649-.799 1.0332-2.442 2.0898-4.931 3.1699l-8.876 3.8038c-13.149 5.4943-22.775 11.2-28.88 17.117-1.738 1.6436-2.607 3.2403-2.607 4.79 0 1.5496 1.245 2.3245 3.734 2.3245 2.442 0 8.124-2.6298 17.046-7.8893l5.847-3.4516c9.063-5.4474 16.647-8.1711 22.752-8.1711 5.166 0 8.594 2.2775 10.285 6.8327.422 1.221.821 2.4654 1.197 3.7333.376 1.221.751 2.3246 1.127 3.3107.845 2.3011 1.597 3.4516 2.254 3.4516.705 0 1.691-.3287 2.959-.9861 1.268-.7044 2.653-1.5732 4.156-2.6063 1.549-1.0801 3.146-2.2541 4.79-3.5221l8.523-6.8327c7.561-6.2927 13.243-9.439 17.046-9.439Zm68.68 3.1698c3.005 0 4.508 1.2445 4.508 3.7334 0 3.0524-1.831 6.6918-5.494 10.9182-6.058 7.0441-13.196 13.9003-21.414 20.5687-13.384 10.7067-25.335 16.0607-35.854 16.0607-7.561 0-13.76-3.288-18.597-9.862-5.024-6.8562-7.537-16.0604-7.537-27.6127 0-15.1681 7.397-31.933 22.189-50.2945 9.392-11.6931 18.244-19.62938 26.556-23.80885 2.583-1.31489 4.555-1.97233 5.917-1.97233 1.409 0 2.677.2348 3.804.7044 1.174.42264 2.254 1.03313 3.24 1.83145 2.301 1.92538 3.452 4.24991 3.452 6.97361 0 2.72372-.752 5.96392-2.254 9.72082-1.503 3.7098-3.687 7.678-6.551 11.9044-6.058 8.9694-14.253 17.5632-24.584 25.7812-2.677 5.1187-4.015 11.2705-4.015 18.4554 0 3.2403 1.033 6.2927 3.099 9.1573 2.113 2.8646 4.438 4.2969 6.974 4.2969 3.475 0 10.12-3.5925 19.934-10.7774l12.539-9.6504c5.119-4.0855 9.815-6.1283 14.088-6.1283Zm49.942-31.6982c-1.362 1.127-2.841 2.0662-4.437 2.8176-1.597.7044-3.382 1.0566-5.354 1.0566s-3.874-.3287-5.706-.9862c-1.831-.6574-3.428-1.5731-4.79-2.7471-2.958-2.5359-4.437-5.7761-4.437-9.7208 0-6.0579 5.071-10.5661 15.215-13.52459 3.428-1.03313 6.246-1.54969 8.453-1.54969 2.207 0 3.85.25828 4.931.77484 1.127.46961 2.042 1.10357 2.747 1.9019 1.409 1.59664 2.113 3.24024 2.113 4.93084 0 1.6436-.211 3.1463-.634 4.5082-.376 1.3618-.939 2.7706-1.691 4.2264-.751 1.4558-1.667 2.9116-2.747 4.3673-1.08 1.4558-2.301 2.7707-3.663 3.9447Zm-17.751 77.5552c-3.569 1.831-7.044 3.287-10.425 4.367-3.381 1.127-6.715 1.691-10.002 1.691-3.241 0-6.622-.775-10.144-2.325-3.475-1.597-6.574-3.71-9.298-6.34-6.058-5.8696-9.087-12.3971-9.087-19.582 0-6.6214 1.972-13.3367 5.917-20.146 3.616-6.1518 8.218-11.3174 13.806-15.4969 5.589-4.1794 10.778-6.2692 15.568-6.2692 6.856 0 10.519 1.9254 10.989 5.7761.14 1.1741.211 2.5359.211 4.0856 0 1.5497-.376 3.3342-1.127 5.3535-.705 1.9723-1.644 3.9681-2.818 5.9874-1.127 1.9723-2.395 3.9212-3.804 5.8466-1.361 1.8784-2.676 3.5924-3.944 5.1421-2.442 2.9585-4.391 5.0952-5.847 6.4101 0 1.5967 1.198 3.2403 3.593 4.9308 2.254 1.5967 4.156 2.395 5.705 2.395 1.597 0 3.452-.3757 5.565-1.127 2.16-.7514 4.367-1.761 6.622-3.029 2.301-1.2679 4.625-2.7237 6.973-4.3673 2.395-1.6436 4.743-3.3342 7.044-5.0717l12.891-10.073c5.118-3.7098 9.274-5.5648 12.468-5.5648 1.268 0 2.23.4696 2.888 1.4088.704.8923 1.056 1.9489 1.056 3.1699 0 1.2209-.61 2.9115-1.831 5.0717-1.221 2.1132-2.912 4.4612-5.072 7.044-2.113 2.5828-4.602 5.2831-7.466 8.1007-2.865 2.8176-5.964 5.5883-9.299 8.312-3.334 2.7237-6.809 5.33-10.425 7.8186-3.569 2.442-7.138 4.602-10.707 6.481Zm111.789-45.857c3.006 0 4.509 1.2445 4.509 3.7334 0 3.0524-1.832 6.6918-5.495 10.9182-6.058 7.0441-13.196 13.9003-21.414 20.5687-13.383 10.7067-25.335 16.0607-35.854 16.0607-7.561 0-13.759-3.288-18.596-9.862-5.025-6.8562-7.537-16.0604-7.537-27.6127 0-15.1681 7.396-31.933 22.188-50.2945 9.392-11.6931 18.244-19.62938 26.556-23.80885 2.583-1.31489 4.556-1.97233 5.917-1.97233 1.409 0 2.677.2348 3.804.7044 1.174.42264 2.254 1.03313 3.241 1.83145 2.301 1.92538 3.451 4.24991 3.451 6.97361 0 2.72372-.751 5.96392-2.254 9.72082-1.503 3.7098-3.686 7.678-6.551 11.9044-6.058 8.9694-14.252 17.5632-24.584 25.7812-2.676 5.1187-4.015 11.2705-4.015 18.4554 0 3.2403 1.033 6.2927 3.1 9.1573 2.113 2.8646 4.437 4.2969 6.973 4.2969 3.475 0 10.12-3.5925 19.935-10.7774l12.538-9.6504c5.119-4.0855 9.815-6.1283 14.088-6.1283Zm57.621-9.6503c-3.006 0-4.509-1.4323-4.509-4.2969 0-1.3149.681-3.6864 2.043-7.1145 1.362-3.4751 2.536-6.1753 3.522-8.1007 2.254-4.5081 4.555-7.631 6.903-9.3685 3.757-2.7707 18.432-5.2831 44.026-7.5372 11.129-.9392 19.23-1.4088 24.302-1.4088 5.071 0 8.664.0705 10.777.2113 2.16.1409 4.391.3992 6.692.7749 2.301.3287 4.602.7748 6.903 1.3384 2.301.5165 4.485 1.174 6.551 1.9723 4.461 1.7375 7.584 3.8977 9.369 6.4805 5.588 8.1242 8.382 14.7456 8.382 19.8642 0 5.7292-4.367 11.341-13.102 16.8353-2.63 1.6906-5.447 3.3812-8.453 5.0717-10.941 5.917-17.352 9.4156-19.23 10.4957 3.945 7.6545 11.67 15.5673 23.175 23.7386 1.362.939 2.442 1.643 3.24 2.113 3.522 2.066 7.678 1.738 12.468-.986 1.315-.798 2.653-1.198 4.015-1.198 1.362 0 2.56.517 3.593 1.55 1.033.986 1.549 2.09 1.549 3.311 0 5.588-3.733 11.599-11.2 18.033-5.541 4.789-10.542 7.184-15.003 7.184-3.616 0-11.482-5.306-23.598-15.919-6.856-6.011-12.421-11.388-16.694-16.131-4.274-4.743-7.209-8.265-8.805-10.566-1.597-2.3481-2.395-4.3674-2.395-6.0579 0-1.6906.399-3.1933 1.197-4.5082.845-1.3149 1.972-2.5828 3.381-3.8038 2.207-1.8784 5.354-3.8742 9.439-5.9874 4.086-2.1602 7.42-4.203 10.003-6.1284 2.583-1.9253 4.813-3.9212 6.692-5.9874 4.132-4.3673 6.198-8.312 6.198-11.834 0-2.3011-.704-4.2264-2.113-5.7761-2.583-2.7707-4.978-4.156-7.185-4.156-3.803 0-8.453.2583-13.947.7748l-8.594 15.2152c-10.941 19.8642-18.408 37.7561-22.4 53.6752-1.596 6.199-7.631 9.299-18.103 9.299-8.641 0-14.158-2.02-16.553-6.058-.799-1.362-1.104-2.677-.916-3.945.235-1.315.869-3.005 1.902-5.0717 1.033-2.1132 2.442-4.743 4.226-7.8893l6.269-10.707 7.678-12.6088 8.665-13.595 9.016-13.5246c-16.389 3.522-28.341 7.3258-35.854 11.4113-1.127.6105-2.301.9158-3.522.9158Zm257.037 6.4805c1.503 0 2.254 1.2679 2.254 3.8038 0 4.3673-3.052 10.026-9.157 16.9761l-4.015 4.0856c-12.163 12.1627-23.621 20.2633-34.375 24.3023-6.669 2.489-11.459 2.371-14.37-.353-2.395-2.301-4.297-6.01-5.706-11.1291l-1.69-6.1284-15.004 9.2277-8.664 4.9308c-10.332 5.635-18.08 8.453-23.246 8.453-6.621 0-12.139-2.559-16.553-7.678-4.227-4.837-6.34-10.4488-6.34-16.8354 0-6.2926 2.513-11.9044 7.537-16.8352 7.185-7.0441 18.526-13.5011 34.023-19.3712 14.652-5.4943 26.486-8.2415 35.502-8.2415 3.052 0 4.579 1.5027 4.579 4.5082 0 2.0662-.399 3.6159-1.198 4.649-.798 1.0332-2.442 2.0898-4.931 3.1699l-8.875 3.8038c-13.149 5.4943-22.776 11.2-28.881 17.117-1.737 1.6436-2.606 3.2403-2.606 4.79 0 1.5496 1.244 2.3245 3.733 2.3245 2.442 0 8.124-2.6298 17.047-7.8893l5.846-3.4516c9.064-5.4474 16.648-8.1711 22.753-8.1711 5.165 0 8.594 2.2775 10.284 6.8327.423 1.221.822 2.4654 1.198 3.7333.375 1.221.751 2.3246 1.127 3.3107.845 2.3011 1.596 3.4516 2.254 3.4516.704 0 1.69-.3287 2.958-.9861 1.268-.7044 2.653-1.5732 4.156-2.6063 1.55-1.0801 3.147-2.2541 4.79-3.5221l8.523-6.8327c7.561-6.2927 13.243-9.439 17.047-9.439Zm33.037-28.6693c-1.456 1.221-2.982 2.2071-4.579 2.9585-1.597.7514-3.24 1.1271-4.931 1.1271-1.643 0-3.358-.3288-5.142-.9862-1.785-.6575-3.405-1.5732-4.86-2.7472-3.335-2.6767-5.002-5.917-5.002-9.7208 0-6.5744 5.495-11.29394 16.483-14.15852 4.039-1.08008 7.162-1.62013 9.369-1.62013 2.254 0 3.827.2348 4.719.70441.94.4696 1.738 1.0566 2.395 1.76101 1.268 1.36185 1.902 2.77063 1.902 4.22643 0 1.4088-.258 2.9115-.774 4.5082-.517 1.5966-1.245 3.2403-2.184 4.9308-.939 1.6436-2.043 3.2638-3.311 4.8604-1.221 1.5497-2.583 2.935-4.085 4.156ZM771.45 105.59c3.053-5.6823 5.636-11.388 7.749-17.1171l4.508-12.1158c.564-1.8314.845-3.2403.845-4.2264 0-1.0331-.141-1.8784-.422-2.5359l-.986-2.1132c-.893-1.9723-1.339-3.9681-1.339-5.9874 0-2.0663.47-3.8508 1.409-5.3535.986-1.5027 2.254-2.8411 3.804-4.0151 1.549-1.174 3.31-2.1837 5.283-3.029 1.972-.8452 3.991-1.5262 6.058-2.0427 3.991-1.0801 7.091-1.6202 9.298-1.6202 2.254 0 3.827.2348 4.719.7044.94.4696 1.714 1.0566 2.325 1.7611 1.315 1.4557 1.972 3.0054 1.972 4.649 0 1.5967-.282 3.5925-.845 5.9875-.517 2.3949-1.268 5.0482-2.254 7.9597-.939 2.8646-2.066 5.964-3.381 9.2982l-4.156 10.2843c-.893 2.0663-1.926 4.3438-3.1 6.8327l11.905-9.2981 19.089-14.1586c2.207-1.5496 3.64-2.5828 4.297-3.0993 1.691-1.3149 3.428-1.9724 5.213-1.9724 3.24 0 5.212 1.1506 5.917 3.4516.845 2.9585-1.198 7.5841-6.129 13.8768-1.549 1.9723-3.099 3.6394-4.649 5.0013-1.503 1.3149-3.123 2.6297-4.86 3.9446-26.392 19.1125-40.691 29.5145-42.898 31.2055-2.161 1.737-3.828 3.123-5.002 4.156-2.864 4.79-5.588 8.805-8.171 12.045-3.991 5.635-8.523 9.979-13.595 13.031-3.851 2.302-7.584 3.452-11.2 3.452-3.663 0-6.48-.892-8.453-2.677-2.019-1.784-3.029-4.156-3.029-7.114 0-2.959.517-5.776 1.55-8.453.986-2.63 2.325-5.189 4.015-7.678 1.644-2.489 3.522-4.86 5.635-7.115 2.114-2.207 4.297-4.296 6.551-6.269 2.207-1.972 4.391-3.757 6.551-5.353l5.776-4.297Zm129.893 9.791c-9.627 0-19.113-6.152-28.458-18.4553l-8.171 6.0583c-8.688 6.198-14.464 9.298-17.329 9.298-3.24 0-6.245-1.221-9.016-3.663-.798-.705-1.385-1.456-1.761-2.254-1.738-1.738-2.606-6.269-2.606-13.5953 0-7.3727.821-14.2759 2.465-20.7095 1.644-6.4335 3.78-12.3975 6.41-17.8918 4.133-8.6407 10.543-18.1267 19.23-28.458 4.884-7.0441 10.872-12.8202 17.963-17.32837 6.011-3.80378 11.035-5.70568 15.074-5.70568 2.207 0 4.062.49309 5.565 1.47925 1.549.98617 2.324 2.32454 2.324 4.01511 0 1.69057-.657 3.54549-1.972 5.56479-15.45 22.541-24.372 35.6899-26.767 39.4467-2.395 3.7568-4.086 6.6449-5.072 8.6642-.986 2.0193-1.714 3.569-2.184 4.649-.469 1.0332-.916 2.1133-1.338 3.2403-.986 2.6298-1.479 4.5317-1.479 5.7057 0 1.174.892 1.761 2.676 1.761 1.644 0 5.941-4.2499 12.891-12.7497l9.439-11.6932c3.475-4.3673 7.067-7.3727 10.777-9.0163 3.757-1.6436 7.021-2.4655 9.792-2.4655 7.842 0 11.763 1.9019 11.763 5.7057 0 3.4281-2.606 8.2416-7.819 14.4403-.563.6575-1.409 1.5497-2.536 2.6768l-9.439 8.7346-6.269 5.5648c4.414 5.1656 8.758 8.805 13.032 10.9183.986.4696 1.808.7044 2.465.7044.704 0 1.949-.4227 3.733-1.268 1.785-.8922 3.781-2.0193 5.988-3.3811 2.254-1.4088 4.625-2.982 7.114-4.7195l19.301-14.0881c1.691-1.3149 3.381-1.9724 5.072-1.9724 3.522 0 5.283 1.4558 5.283 4.3674 0 3.8037-1.855 8.2415-5.565 13.3132-1.127 1.5027-2.207 2.7707-3.24 3.8038l-4.508 4.0855c-12.586 11.6936-23.997 19.4886-34.235 23.3866-3.099 1.221-5.963 1.831-8.593 1.831Zm166.877-56.2818c1.5 0 2.25 1.2679 2.25 3.8038 0 4.3673-3.05 10.026-9.16 16.9761l-4.01 4.0856c-12.16 12.1627-23.62 20.2633-34.38 24.3023-6.67 2.489-11.46 2.371-14.37-.353-2.39-2.301-4.29-6.01-5.7-11.1291l-1.69-6.1284-15.007 9.2277-8.664 4.9308c-10.331 5.635-18.08 8.453-23.245 8.453-6.622 0-12.14-2.559-16.554-7.678-4.226-4.837-6.34-10.4488-6.34-16.8354 0-6.2926 2.513-11.9044 7.537-16.8352 7.185-7.0441 18.526-13.5011 34.023-19.3712 14.652-5.4943 26.486-8.2415 35.5-8.2415 3.05 0 4.58 1.5027 4.58 4.5082 0 2.0662-.4 3.6159-1.2 4.649-.79 1.0332-2.44 2.0898-4.93 3.1699l-8.873 3.8038c-13.149 5.4943-22.776 11.2-28.881 17.117-1.737 1.6436-2.606 3.2403-2.606 4.79 0 1.5496 1.245 2.3245 3.733 2.3245 2.442 0 8.125-2.6298 17.047-7.8893l5.847-3.4516c9.063-5.4474 16.643-8.1711 22.753-8.1711 5.16 0 8.59 2.2775 10.28 6.8327.43 1.221.83 2.4654 1.2 3.7333.38 1.221.75 2.3246 1.13 3.3107.84 2.3011 1.59 3.4516 2.25 3.4516.71 0 1.69-.3287 2.96-.9861 1.27-.7044 2.65-1.5732 4.16-2.6063 1.55-1.0801 3.14-2.2541 4.79-3.5221l8.52-6.8327c7.56-6.2927 13.24-9.439 17.05-9.439Zm-18.39 29.6554c-.89 0-1.76-.2113-2.61-.6339-.89-.4227-1.71-1.1036-2.46-2.0428-1.64-2.0663-2.47-4.8839-2.47-8.4529 0-3.8037 2.28-8.5467 6.84-14.2289 4.41-5.4944 9.55-10.2374 15.42-14.229 6.3-4.3204 11.7-6.4805 16.2-6.4805 4 0 6.7 1.127 8.11 3.3811l.98 1.5497c.75 1.174 1.5 1.761 2.26 1.761.75 0 1.92-.0704 3.52-.2113l10-.7044c1.55-.1409 2.77-.2113 3.66-.2113.9 0 1.9.3287 3.03.9861 1.18.6105 2.21 1.4323 3.1 2.4654 1.97 2.3481 2.96 4.9309 2.96 7.7485 0 2.9115-3.22 7.4902-9.65 13.7359l-4.65 4.6491c-3.33 3.4281-5 5.5882-5 6.4805 0 .8922.42 1.6906 1.27 2.395.84.6574 1.76.9861 2.74.9861.99 0 2.09-.2583 3.31-.7748 1.27-.5635 2.82-1.3619 4.65-2.395 1.84-1.0801 3.93-2.3715 6.27-3.8742 6.44-4.2264 10.73-7.138 12.89-8.7346l5.85-4.156c3.99-2.8176 6.83-4.2265 8.52-4.2265 1.69 0 3.08.3757 4.16 1.1271 1.08.7044 1.62 1.9488 1.62 3.7333 0 1.7845-.92 4.1795-2.75 7.185-1.83 3.0054-3.82 5.6117-5.98 7.8189-2.12 2.2071-4.18 4.2499-6.2 6.1283-2.02 1.8784-4.42 3.9212-7.19 6.1283-2.72 2.1602-5.75 4.3672-9.09 6.6212-3.33 2.207-6.85 4.203-10.56 5.988-8.41 4.085-16.13 6.128-23.18 6.128-10.28 0-16.55-2.653-18.8-7.96-.71-1.596-1.06-3.381-1.06-5.353 0-1.9726.38-4.0858 1.13-6.3399.75-2.3011 1.73-4.5787 2.96-6.8327 2.44-4.4613 5.32-8.4059 8.66-11.8341 2.82-2.9585 4.23-4.7195 4.23-5.283 0-.8922-.52-1.4558-1.55-1.6906-.99-.2348-2.47-.3522-4.44-.3522-.85 0-2.66 1.221-5.43 3.6629l-6.9 6.3397c-7.32 6.6684-12.11 10.0025-14.37 10.0025Zm166.03-14.5811c0 4.2733 1.24 6.41 3.73 6.41 6.11 0 14.04-4.1325 23.81-12.3975l1.9-1.6201c3.81-2.5359 6.88-3.8038 9.23-3.8038 2.4 0 3.9.3522 4.51 1.0566.66.7044.99 1.8315.99 3.3811 0 3.4751-1.77 7.1615-5.29 11.0592-5.26 6.3866-12.47 12.4445-21.62 18.1737-10.62 6.6683-20.13 10.0023-28.53 10.0023-5.87 0-9.56-3.264-11.06-9.791-.42-1.6906-.73-3.3107-.92-4.8604-.47-3.7568-.96-5.8466-1.48-6.2692-.51-.4227-1.54-.3757-3.09.1409-1.51.4696-3.32 1.2914-5.43 2.4654-2.06 1.127-4.37 2.5124-6.9 4.156-13.43 8.9223-21.16 14.0173-23.18 15.2853-4.83 3.006-8.1 4.508-9.79 4.508-1.69 0-3.36-.352-5-1.056-1.6-.705-3-1.597-4.23-2.677-2.53-2.395-3.8-4.837-3.8-7.326 0-14.2287 3.1-26.6732 9.3-37.3332 4.13-7.1849 9.2-12.1627 15.21-14.9334 3.06-1.4557 6.34-2.1836 9.87-2.1836 6.43 0 9.65 2.1132 9.65 6.3396 0 2.5828-1.53 6.8093-4.58 12.6793l-2.12 4.156c-1.5 2.8646-2.23 4.4847-2.18 4.8604.28 1.4088.92 2.1132 1.9 2.1132 1.08 0 2.68-.7983 4.79-2.395l12.96-9.6503 6.48-4.5082c7.47-4.8839 12.97-7.3258 16.49-7.3258 1.88 0 3.59.7514 5.14 2.2541 2.86 2.7237 4.3 5.0952 4.3 7.1145 0 .6574-.07 1.4557-.22 2.3949-.09.9393-.21 1.9489-.35 3.029l-.28 3.3107c-.14 1.127-.21 2.2071-.21 3.2403Zm90.73-43.6027c-1.37 1.127-2.84 2.0662-4.44 2.8176-1.6.7044-3.38 1.0566-5.35 1.0566-1.98 0-3.88-.3287-5.71-.9862-1.83-.6574-3.43-1.5731-4.79-2.7471-2.96-2.5359-4.44-5.7761-4.44-9.7208 0-6.0579 5.07-10.5661 15.22-13.52459 3.43-1.03313 6.24-1.54969 8.45-1.54969 2.21 0 3.85.25828 4.93.77484 1.13.46961 2.04 1.10357 2.75 1.9019 1.41 1.59664 2.11 3.24024 2.11 4.93084 0 1.6436-.21 3.1463-.63 4.5082-.38 1.3618-.94 2.7706-1.69 4.2264s-1.67 2.9116-2.75 4.3673c-1.08 1.4558-2.3 2.7707-3.66 3.9447Zm-17.75 77.5552c-3.57 1.831-7.05 3.287-10.43 4.367-3.38 1.127-6.71 1.691-10 1.691-3.24 0-6.62-.775-10.15-2.325-3.47-1.597-6.57-3.71-9.29-6.34-6.06-5.8696-9.09-12.3971-9.09-19.582 0-6.6214 1.97-13.3367 5.92-20.146 3.61-6.1518 8.21-11.3174 13.8-15.4969 5.59-4.1794 10.78-6.2692 15.57-6.2692 6.86 0 10.52 1.9254 10.99 5.7761.14 1.1741.21 2.5359.21 4.0856 0 1.5497-.38 3.3342-1.13 5.3535-.7 1.9723-1.64 3.9681-2.81 5.9874-1.13 1.9723-2.4 3.9212-3.81 5.8466-1.36 1.8784-2.67 3.5924-3.94 5.1421-2.44 2.9585-4.39 5.0952-5.85 6.4101 0 1.5967 1.2 3.2403 3.59 4.9308 2.26 1.5967 4.16 2.395 5.71 2.395 1.6 0 3.45-.3757 5.56-1.127 2.16-.7514 4.37-1.761 6.63-3.029 2.3-1.2679 4.62-2.7237 6.97-4.3673 2.39-1.6436 4.74-3.3342 7.04-5.0717l12.89-10.073c5.12-3.7098 9.28-5.5648 12.47-5.5648 1.27 0 2.23.4696 2.89 1.4088.7.8923 1.06 1.9489 1.06 3.1699 0 1.2209-.61 2.9115-1.84 5.0717-1.22 2.1132-2.91 4.4612-5.07 7.044-2.11 2.5828-4.6 5.2831-7.46 8.1007-2.87 2.8176-5.97 5.5883-9.3 8.312-3.34 2.7237-6.81 5.33-10.43 7.8186-3.57 2.442-7.14 4.602-10.7 6.481Zm91.92 7.255c-9.63 0-19.11-6.152-28.46-18.4553l-8.17 6.0583c-8.69 6.198-14.46 9.298-17.33 9.298-3.24 0-6.24-1.221-9.01-3.663-.8-.705-1.39-1.456-1.76-2.254-1.74-1.738-2.61-6.269-2.61-13.5953 0-7.3727.82-14.2759 2.47-20.7095 1.64-6.4335 3.78-12.3975 6.41-17.8918 4.13-8.6407 10.54-18.1267 19.23-28.458 4.88-7.0441 10.87-12.8202 17.96-17.32837 6.01-3.80378 11.03-5.70568 15.07-5.70568 2.21 0 4.06.49309 5.57 1.47925 1.55.98617 2.32 2.32454 2.32 4.01511 0 1.69057-.66 3.54549-1.97 5.56479-15.45 22.541-24.37 35.6899-26.77 39.4467-2.39 3.7568-4.08 6.6449-5.07 8.6642-.99 2.0193-1.71 3.569-2.18 4.649-.47 1.0332-.92 2.1133-1.34 3.2403-.99 2.6298-1.48 4.5317-1.48 5.7057 0 1.174.89 1.761 2.68 1.761 1.64 0 5.94-4.2499 12.89-12.7497l9.43-11.6932c3.48-4.3673 7.07-7.3727 10.78-9.0163 3.76-1.6436 7.02-2.4655 9.79-2.4655 7.85 0 11.77 1.9019 11.77 5.7057 0 3.4281-2.61 8.2416-7.82 14.4403-.57.6575-1.41 1.5497-2.54 2.6768l-9.44 8.7346-6.27 5.5648c4.42 5.1656 8.76 8.805 13.04 10.9183.98.4696 1.8.7044 2.46.7044.71 0 1.95-.4227 3.73-1.268 1.79-.8922 3.78-2.0193 5.99-3.3811 2.26-1.4088 4.63-2.982 7.12-4.7195l19.3-14.0881c1.69-1.3149 3.38-1.9724 5.07-1.9724 3.52 0 5.28 1.4558 5.28 4.3674 0 3.8037-1.85 8.2415-5.56 13.3132-1.13 1.5027-2.21 2.7707-3.24 3.8038l-4.51 4.0855c-12.59 11.6936-24 19.4886-34.24 23.3866-3.09 1.221-5.96 1.831-8.59 1.831Zm166.87-56.2818c1.51 0 2.26 1.2679 2.26 3.8038 0 4.3673-3.05 10.026-9.16 16.9761l-4.01 4.0856c-12.17 12.1627-23.63 20.2633-34.38 24.3023-6.67 2.489-11.46 2.371-14.37-.353-2.39-2.301-4.3-6.01-5.7-11.1291l-1.7-6.1284-15 9.2277-8.66 4.9308c-10.33 5.635-18.08 8.453-23.25 8.453-6.62 0-12.14-2.559-16.55-7.678-4.23-4.837-6.34-10.4488-6.34-16.8354 0-6.2926 2.51-11.9044 7.54-16.8352 7.18-7.0441 18.52-13.5011 34.02-19.3712 14.65-5.4943 26.48-8.2415 35.5-8.2415 3.05 0 4.58 1.5027 4.58 4.5082 0 2.0662-.4 3.6159-1.2 4.649-.8 1.0332-2.44 2.0898-4.93 3.1699l-8.87 3.8038c-13.15 5.4943-22.78 11.2-28.89 17.117-1.73 1.6436-2.6 3.2403-2.6 4.79 0 1.5496 1.24 2.3245 3.73 2.3245 2.44 0 8.13-2.6298 17.05-7.8893l5.84-3.4516c9.07-5.4474 16.65-8.1711 22.76-8.1711 5.16 0 8.59 2.2775 10.28 6.8327.42 1.221.82 2.4654 1.2 3.7333.37 1.221.75 2.3246 1.13 3.3107.84 2.3011 1.59 3.4516 2.25 3.4516.7 0 1.69-.3287 2.96-.9861 1.27-.7044 2.65-1.5732 4.15-2.6063 1.55-1.0801 3.15-2.2541 4.79-3.5221l8.53-6.8327c7.56-6.2927 13.24-9.439 17.04-9.439Zm-18.38 29.6554c-.89 0-1.76-.2113-2.61-.6339-.89-.4227-1.71-1.1036-2.46-2.0428-1.65-2.0663-2.47-4.8839-2.47-8.4529 0-3.8037 2.28-8.5467 6.83-14.2289 4.42-5.4944 9.56-10.2374 15.43-14.229 6.29-4.3204 11.69-6.4805 16.2-6.4805 3.99 0 6.69 1.127 8.1 3.3811l.99 1.5497c.75 1.174 1.5 1.761 2.25 1.761s1.93-.0704 3.53-.2113l10-.7044c1.55-.1409 2.77-.2113 3.66-.2113.89 0 1.9.3287 3.03.9861 1.17.6105 2.21 1.4323 3.1 2.4654 1.97 2.3481 2.96 4.9309 2.96 7.7485 0 2.9115-3.22 7.4902-9.65 13.7359l-4.65 4.6491c-3.34 3.4281-5 5.5882-5 6.4805 0 .8922.42 1.6906 1.27 2.395.84.6574 1.76.9861 2.74.9861.99 0 2.09-.2583 3.31-.7748 1.27-.5635 2.82-1.3619 4.65-2.395 1.83-1.0801 3.92-2.3715 6.27-3.8742 6.43-4.2264 10.73-7.138 12.89-8.7346l5.85-4.156c3.99-2.8176 6.83-4.2265 8.52-4.2265 1.69 0 3.08.3757 4.16 1.1271 1.08.7044 1.62 1.9488 1.62 3.7333 0 1.7845-.92 4.1795-2.75 7.185-1.83 3.0054-3.83 5.6117-5.99 7.8189-2.11 2.2071-4.18 4.2499-6.2 6.1283-2.01 1.8784-4.41 3.9212-7.18 6.1283-2.72 2.1602-5.75 4.3672-9.09 6.6212-3.33 2.207-6.85 4.203-10.56 5.988-8.41 4.085-16.13 6.128-23.18 6.128-10.28 0-16.55-2.653-18.81-7.96-.7-1.596-1.05-3.381-1.05-5.353 0-1.9726.37-4.0858 1.12-6.3399.76-2.3011 1.74-4.5787 2.96-6.8327 2.45-4.4613 5.33-8.4059 8.67-11.8341 2.81-2.9585 4.22-4.7195 4.22-5.283 0-.8922-.51-1.4558-1.55-1.6906-.98-.2348-2.46-.3522-4.43-.3522-.85 0-2.66 1.221-5.43 3.6629l-6.9 6.3397c-7.33 6.6684-12.12 10.0025-14.37 10.0025Z"/>
</svg>