<svg xmlns="http://www.w3.org/2000/svg" fill="none" viewBox="0 0 129 123">
  <path fill="#101820" d="M45.5 22.5c-.72 0 .126-8.3699.7884-13.8104.1335-1.09698.6354-2.11342 1.4168-2.89483l.3303-.3303A5.00012 5.00012 0 0 1 51.5711 4h25.9403c2.5534 0 4.6966 1.92397 4.971 4.46259l.919 8.50001c.3196 2.9569-1.9928 5.5374-4.9669 5.5374H45.5Zm75 0h.5c2.761 0 5 2.2386 5 5v40c0 2.7867-.513 8.2691-2.841 13v29c0 2.761-2.239 5-5 5H13c-2.7614 0-5-2.239-5-5V84.3779C5.17322 81.459 3 76.8994 3 70V27.4931C3 24.7317 5.23858 22.5 8 22.5h112.5Z"/>
  <path stroke="#D4B44A" stroke-width="6" d="M75.5 89H110c6.906 0 10.893-3.8938 13.159-8.5M75.5 89v-8c0-2.7614-2.2386-5-5-5H62c-2.7614 0-5 2.2386-5 5v8m18.5 0C69 106.5 59.1667 95.6667 57 89m0 0H18c-5-.1667-15-4.2-15-19V27.4931C3 24.7317 5.23858 22.5 8 22.5h38m0 0h75c2.761 0 5 2.2386 5 5v40c0 2.7867-.513 8.2691-2.841 13M46 22.5V8c0-2.76142 2.2386-5 5-5h27c2.7614 0 5 2.23858 5 5v13m40.159 59.5v29c0 2.761-2.239 5-5 5H110M8 84.3779V109.5c0 2.761 2.2386 5 5 5h9m0 0v6.5m0-6.5h88m0 0v8"/>
</svg>